<svg xmlns="http://www.w3.org/2000/svg" width="110" height="110" viewBox="0 0 110 110" xmlns:xlink="http://www.w3.org/1999/xlink">
  <defs>
    <path id="a" d="M67.9836369,14.4918184 C67.9836369,14.398658 67.9821371,14.305848 67.9791604,14.2134112 C63.5105588,14.0694736 59.9141628,10.4730775 59.7702256,6.00447574 C59.6777895,6.00149952 59.5849795,6 59.4918184,6 C59.398658,6 59.305848,6.00149975 59.2134112,6.00447645 C59.0694736,10.4730781 55.4730775,14.069474 51.0044757,14.2134112 C51.0014995,14.3058474 51,14.3986574 51,14.4918184 C51,14.5849788 51.0014998,14.6777889 51.0044764,14.7702257 C55.4730781,14.9141632 59.069474,18.5105594 59.2134112,22.9791611 C59.3058474,22.9821373 59.3986574,22.9836369 59.4918184,22.9836369 C59.5849788,22.9836369 59.6777889,22.9821371 59.7702257,22.9791604 C59.9141632,18.5105588 63.5105594,14.9141628 67.9791611,14.7702256 C67.9821373,14.6777895 67.9836369,14.5849795 67.9836369,14.4918184 Z"/>
    <mask id="c" width="16.984" height="16.984" x="0" y="0" fill="white">
      <use xlink:href="#a"/>
    </mask>
    <path id="b" d="M27.8686522,78.1218382 C27.8179134,78.0437073 27.7661076,77.9666871 27.7132664,77.8907843 C23.8871878,80.203843 18.9122586,79.146389 16.3577678,75.477098 C16.2786233,75.5249463 16.1999696,75.5742366 16.1218382,75.6249758 C16.0437073,75.6757146 15.9666871,75.7275203 15.8907843,75.7803615 C18.203843,79.6064402 17.146389,84.5813694 13.477098,87.1358602 C13.5249463,87.2150046 13.5742366,87.2936583 13.6249758,87.3717898 C13.6757146,87.4499207 13.7275203,87.5269409 13.7803615,87.6028437 C17.6064402,85.289785 22.5813694,86.347239 25.1358602,90.0165299 C25.2150046,89.9686816 25.2936583,89.9193913 25.3717898,89.8686522 C25.4499207,89.8179134 25.5269409,89.7661076 25.6028437,89.7132664 C23.289785,85.8871878 24.347239,80.9122586 28.0165299,78.3577678 C27.9686816,78.2786233 27.9193913,78.1999696 27.8686522,78.1218382 Z"/>
    <mask id="d" width="14.539" height="14.539" x="0" y="0" fill="white">
      <use xlink:href="#b"/>
    </mask>
  </defs>
  <g fill="none" fill-rule="evenodd">
    <circle cx="55" cy="55" r="40" fill="#1E1920" fill-opacity=".104"/>
    <g fill="#1E1920" transform="rotate(-45 49.846 20.365)">
      <path d="M46.4192503,68.3027046 C44.8158512,69.9171784 42.7094756,70.9249252 39.9598681,71.4974779 C38.0213857,71.9011294 35.7750464,72.1061543 32.6521304,72.1836032 C33.3453261,71.2838589 32.7726411,70.6166353 32.3049244,69.797184 C39.2782451,69.6436057 43.2739302,68.8223539 45.5397338,65.6353128 C45.623186,66.4914944 45.7911351,67.1825776 46.0477644,67.7044348 C46.1872553,67.9880902 46.3050398,68.1842017 46.4192503,68.3027046 L46.4192503,68.3027046 Z M50.6344664,53.9913646 C50.7527734,51.5816578 50.8,48.7789623 50.8,45.4873598 C50.8,34.6228973 48.3613932,25.0413774 44.1120941,17.956255 C40.0726934,11.2211094 34.5978303,7.18221471 29.2,7.18221471 C23.8021697,7.18221471 18.3273066,11.2211094 14.2879059,17.956255 C10.0386068,25.0413774 7.6,34.6228973 7.6,45.4873598 C7.6,48.1418109 7.63071291,50.4783105 7.70464888,52.5471626 C8.32124724,52.2647912 8.90104217,52.5938856 8.90104217,52.5938856 C8.90104217,52.5938856 9.46678728,52.8129082 10.1493049,53.6370194 C10.0379219,51.2768368 10,48.576403 10,45.4873598 C10,23.2301713 20.5265625,9.57628627 29.2,9.57628627 C37.8734375,9.57628627 48.4,23.2301713 48.4,45.4873598 C48.4,48.6991167 48.3590053,51.4907755 48.2370704,53.9166995 C48.2447547,53.9048217 48.2519305,53.8935745 48.258578,53.8829588 C48.5925201,53.349668 49.5884083,53.7844563 49.5884083,53.7844563 C49.5884083,53.7844563 50.0884907,53.7133419 50.6344664,53.9913646 L50.6344664,53.9913646 Z M26.1711053,72.1932131 C22.8259903,72.1240518 20.4650925,71.9191368 18.4401319,71.4974779 C15.4822248,70.8815508 13.2686986,69.7619949 11.6249465,67.9252652 C11.8048921,67.7744338 11.998541,67.5501282 12.2517892,67.2786012 C12.6379742,66.8645423 12.8426834,66.4393692 12.8964437,65.685795 C15.1418319,68.7941057 19.0652383,69.6249945 25.8519224,69.7915261 C25.5830858,70.5356017 25.9854049,71.256722 25.9854049,71.256722 C25.9854049,71.256722 25.9854049,71.6870231 26.1711064,72.1932131 L26.1711053,72.1932131 Z"/>
      <path d="M29.2 40.3002047C25.0026359 40.3002047 21.6 36.905974 21.6 32.7189781 21.6 28.5319822 25.0026359 25.1377515 29.2 25.1377515 33.3973641 25.1377515 36.8 28.5319822 36.8 32.7189781 36.8 36.905974 33.3973641 40.3002047 29.2 40.3002047zM29.2 37.9061332C32.0718807 37.9061332 34.4 35.5837647 34.4 32.7189781 34.4 29.8541915 32.0718807 27.531823 29.2 27.531823 26.3281193 27.531823 24 29.8541915 24 32.7189781 24 35.5837647 26.3281193 37.9061332 29.2 37.9061332zM19.2 81.3914628C19.2 80.7342079 19.7326378 80.2013975 20.4 80.2013975 21.0627417 80.2013975 21.6 80.7301238 21.6 81.3914628L21.6 89.3856424C21.6 90.0428973 21.0673622 90.5757077 20.4 90.5757077 19.7372583 90.5757077 19.2 90.0469815 19.2 89.3856424L19.2 81.3914628zM36.8 81.3914628C36.8 80.7342079 37.3326378 80.2013975 38 80.2013975 38.6627417 80.2013975 39.2 80.7301238 39.2 81.3914628L39.2 89.3856424C39.2 90.0428973 38.6673622 90.5757077 38 90.5757077 37.3372583 90.5757077 36.8 90.0469815 36.8 89.3856424L36.8 81.3914628zM28 83.3964536C28 82.7337139 28.5326378 82.1964572 29.2 82.1964572 29.8627417 82.1964572 30.4 82.7420194 30.4 83.3964536L30.4 95.3608902C30.4 96.0236299 29.8673622 96.5608866 29.2 96.5608866 28.5372583 96.5608866 28 96.0153244 28 95.3608902L28 83.3964536z"/>
      <rect width="2.4" height="9.576" x="28" rx="1.2"/>
      <path d="M29.2 79.4033737L29.2 79.4033737C27.9472587 79.4033737 26.9174041 78.7585612 26.2373052 77.7394604 25.7848211 77.0614311 25.4848204 76.2295265 25.2710354 75.2109616 24.9392373 73.6301309 24.8 71.4939181 24.8 68.6300516 24.8 65.7488741 24.9404624 63.4362849 25.2598167 61.7070047 25.4611987 60.6165362 25.7365708 59.7267961 26.1397229 59.0066765 26.7905402 57.844172 27.8211162 57.0587057 29.2 57.0587057 30.5788838 57.0587057 31.6094598 57.844172 32.2602771 59.0066765 32.6634292 59.7267961 32.9388013 60.6165362 33.1401833 61.7070047 33.4595376 63.4362849 33.6 65.7488741 33.6 68.6300516 33.6 71.4939181 33.4607627 73.6301309 33.1289646 75.2109616 32.9151796 76.2295265 32.6151789 77.0614311 32.1626948 77.7394604 31.4825959 78.7585612 30.4527413 79.4033737 29.2 79.4033737L29.2 79.4033737zM29.2 77.0093021C30.7463973 77.0093021 31.2 73.6985203 31.2 68.6300516 31.2 63.561583 30.7463973 59.4527773 29.2 59.4527773 27.6536027 59.4527773 27.2 63.561583 27.2 68.6300516 27.2 73.6985203 27.6536027 77.0093021 29.2 77.0093021L29.2 77.0093021zM10.0349505 71.1807035L10.0349505 71.1807035C7.53907431 73.4975095 5.99630854 74.4992216 4.07097476 74.2508287 2.54880041 74.0544486 1.49126064 73.0046093.948877591 71.4909198.558980999 70.4027913.3875 68.9779644.3875 67.1111566.3875 63.714315 1.32906102 60.0234729 2.8392478 56.7973121 4.4552103 53.3451863 6.23852764 51.0735268 8.4 51.0735268 10.2572556 51.0735268 11.7488836 52.1050571 12.582705 54.0282244 13.282022 55.6411639 13.6 58.0156357 13.6 61.4478369 13.6 62.2146137 13.6231783 64.6294818 13.6179477 65.088104 13.6050131 66.2222346 13.5276046 66.9166176 13.264911 67.6225081 12.9675389 68.4215841 12.528974 68.9748824 11.8113045 69.6202657 11.8142566 69.6176109 10.5403874 70.7115299 10.0349505 71.1807035L10.0349505 71.1807035zM8.4 69.4280755C11.6398438 66.4206789 11.2 68.058883 11.2 61.4478369 11.2 54.8367908 9.9463973 53.4675984 8.4 53.4675984 6.8536027 53.4675984 2.7875 60.5001105 2.7875 67.1111566 2.7875 73.7222027 5.16015625 72.435472 8.4 69.4280755L8.4 69.4280755zM48.2554489 72.5914237L48.2554489 72.5914237C47.750012 72.1222501 46.4761428 71.0283311 46.479095 71.0309859 45.7614254 70.3856026 45.3228605 69.8323043 45.0254884 69.0332283 44.7627948 68.3273378 44.6853863 67.6329548 44.6724517 66.4988242 44.6672212 66.040202 44.6903994 63.6253339 44.6903994 62.8585571 44.6903994 59.4263559 45.0083774 57.0518841 45.7076944 55.4389446 46.5415158 53.5157773 48.0331438 52.484247 49.8903994 52.484247 52.0518718 52.484247 53.8351891 54.7559065 55.4511516 58.2080323 56.9613384 61.4341931 57.9028994 65.1250352 57.9028994 68.5218768 57.9028994 70.3886846 57.7314184 71.8135115 57.3415218 72.90164 56.7991388 74.4153295 55.741599 75.4651688 54.2194247 75.6615489 52.2940909 75.9099418 50.7513251 74.9082297 48.2554489 72.5914237L48.2554489 72.5914237zM49.8903994 70.8387957L49.8903994 70.8387957C53.1302432 73.8461922 55.5028994 75.1329229 55.5028994 68.5218768 55.5028994 61.9108307 51.4367967 54.8783186 49.8903994 54.8783186 48.3440021 54.8783186 47.0903994 56.247511 47.0903994 62.8585571 47.0903994 69.4696032 46.6505557 67.8313991 49.8903994 70.8387957L49.8903994 70.8387957z"/>
    </g>
    <path fill="#1E1920" d="M7 33C5.8954305 33 5 32.1045695 5 31 5 29.8954305 5.8954305 29 7 29 8.1045695 29 9 29.8954305 9 31 9 32.1045695 8.1045695 33 7 33zM103 73C101.895431 73 101 72.1045695 101 71 101 69.8954305 101.895431 69 103 69 104.104569 69 105 69.8954305 105 71 105 72.1045695 104.104569 73 103 73zM103.983637 33.4918184C103.983637 33.398658 103.982137 33.305848 103.97916 33.2134112 99.5105588 33.0694736 95.9141628 29.4730775 95.7702256 25.0044757 95.6777895 25.0014995 95.5849795 25 95.4918184 25 95.398658 25 95.305848 25.0014998 95.2134112 25.0044764 95.0694736 29.4730781 91.4730775 33.069474 87.0044757 33.2134112 87.0014995 33.3058474 87 33.3986574 87 33.4918184 87 33.5849788 87.0014998 33.6777889 87.0044764 33.7702257 91.4730781 33.9141632 95.069474 37.5105594 95.2134112 41.9791611 95.3058474 41.9821373 95.3986574 41.9836369 95.4918184 41.9836369 95.5849788 41.9836369 95.6777889 41.9821371 95.7702257 41.9791604 95.9141632 37.5105588 99.5105594 33.9141628 103.979161 33.7702256 103.982137 33.6777895 103.983637 33.5849795 103.983637 33.4918184z"/>
    <use stroke="#1E1920" stroke-width="4" mask="url(#c)" stroke-linecap="round" stroke-linejoin="round" xlink:href="#a"/>
    <use stroke="#1E1920" stroke-width="4" mask="url(#d)" stroke-linecap="round" stroke-linejoin="round" xlink:href="#b"/>
  </g>
</svg>
