<svg xmlns="http://www.w3.org/2000/svg" width="96" height="85" viewBox="0 0 96 85">
  <g fill="none" fill-rule="evenodd">
    <path fill="#F8F9FA" d="M47,83 C69.09139,83 87,65.09139 87,43 C87,20.90861 69.09139,3 47,3 C24.90861,3 7,20.90861 7,43 C7,65.09139 24.90861,83 47,83 Z"/>
    <polygon fill="#00CD8D" points="32.433 60.754 13.313 41.634 6.94 48.007 32.433 73.5 87.06 18.873 80.687 12.5"/>
    <path fill="#CED4DA" d="M79 49.4918184C79 49.398658 79.0014998 49.305848 79.0044764 49.2134112 83.4730781 49.0694736 87.069474 45.4730775 87.2134112 41.0044757 87.3058474 41.0014995 87.3986574 41 87.4918184 41 87.5849788 41 87.6777889 41.0014998 87.7702257 41.0044764 87.9141632 45.4730781 91.5105594 49.069474 95.9791611 49.2134112 95.9821373 49.3058474 95.9836369 49.3986574 95.9836369 49.4918184 95.9836369 49.5849788 95.9821371 49.6777889 95.9791604 49.7702257 91.5105588 49.9141632 87.9141628 53.5105594 87.7702256 57.9791611 87.6777895 57.9821373 87.5849795 57.9836369 87.4918184 57.9836369 87.398658 57.9836369 87.305848 57.9821371 87.2134112 57.9791604 87.0694736 53.5105588 83.4730775 49.9141628 79.0044757 49.7702256 79.0014995 49.6777895 79 49.5849795 79 49.4918184zM0 76.4918184C0 76.398658.00149975396 76.305848.00447644685 76.2134112 4.47307808 76.0694736 8.06947403 72.4730775 8.21341122 68.0044757 8.30584737 68.0014995 8.39865738 68 8.49181843 68 8.58497883 68 8.67778885 68.0014998 8.77022566 68.0044764 8.91416321 72.4730781 12.5105594 76.069474 16.9791611 76.2134112 16.9821373 76.3058474 16.9836369 76.3986574 16.9836369 76.4918184 16.9836369 76.5849788 16.9821371 76.6777889 16.9791604 76.7702257 12.5105588 76.9141632 8.91416282 80.5105594 8.77022564 84.9791611 8.67778948 84.9821373 8.58497947 84.9836369 8.49181843 84.9836369 8.39865802 84.9836369 8.305848 84.9821371 8.21341119 84.9791604 8.06947364 80.5105588 4.47307747 76.9141628.00447574159 76.7702256.00149952209 76.6777895 0 76.5849795 0 76.4918184zM14 8.49181843C14 8.39865802 14.0014998 8.305848 14.0044764 8.21341119 18.4730781 8.06947364 22.069474 4.47307747 22.2134112.00447574159 22.3058474.00149952209 22.3986574 0 22.4918184 0 22.5849788 0 22.6777889.00149975396 22.7702257.00447644684 22.9141632 4.47307808 26.5105594 8.06947403 30.9791611 8.21341122 30.9821373 8.30584737 30.9836369 8.39865738 30.9836369 8.49181843 30.9836369 8.58497883 30.9821371 8.67778885 30.9791604 8.77022566 26.5105588 8.91416321 22.9141628 12.5105594 22.7702256 16.9791611 22.6777895 16.9821373 22.5849795 16.9836369 22.4918184 16.9836369 22.398658 16.9836369 22.305848 16.9821371 22.2134112 16.9791604 22.0694736 12.5105588 18.4730775 8.91416282 14.0044757 8.77022564 14.0014995 8.67778948 14 8.58497947 14 8.49181843z"/>
    <path stroke="#CED4DA" stroke-width="2" d="M52,20 C53.6568542,20 55,18.6568542 55,17 C55,15.3431458 53.6568542,14 52,14 C50.3431458,14 49,15.3431458 49,17 C49,18.6568542 50.3431458,20 52,20 Z"/>
    <path fill="#CED4DA" d="M59 74C60.6568542 74 62 72.6568542 62 71 62 69.3431458 60.6568542 68 59 68 57.3431458 68 56 69.3431458 56 71 56 72.6568542 57.3431458 74 59 74zM33 41C34.6568542 41 36 39.6568542 36 38 36 36.3431458 34.6568542 35 33 35 31.3431458 35 30 36.3431458 30 38 30 39.6568542 31.3431458 41 33 41z"/>
  </g>
</svg>
